<svg xmlns="http://www.w3.org/2000/svg" version="1.1" xmlns:xlink="http://www.w3.org/1999/xlink" width="2000" height="1500" viewBox="0 0 2000 1500"><rect width="2000" height="1500" x="0" y="0" id="background" stroke="transparent" fill="#ffffff"></rect><svg xml:space="preserve" width="1500" height="1125" data-version="2" data-id="lg_9hcQnJyfWrM3L1eyN0" viewBox="0 0 568 108" x="250" y="187.5"><rect width="100%" height="100%" fill="transparent"></rect><rect width="125.29" height="125.29" x="-62.64" y="-62.64" fill="#0d1b2a" rx="29" ry="29" transform="translate(58.55 54)scale(.8434)"></rect><path fill="#1b263b" d="M131.61 32.96v39.15h5.92V55.2h12.99q5.8 0 7.84-3.16 2.05-3.16 2.05-7.83 0-4.7-1.99-7.97-1.98-3.28-7.7-3.28zm14.94 20.68 7.77 18.47h6.44l-8.33-18.85zm2.32-2.15h-11.34V37.08h11.34q3.19 0 4.39 1.96 1.2 1.95 1.2 5.26 0 3.25-1.18 5.22-1.19 1.97-4.41 1.97" paint-order="stroke"></path><rect width="29.15" height="39.15" x="-14.57" y="-19.57" fill="none" rx="0" ry="0" transform="translate(146.69 53.03)"></rect><path fill="#1b263b" d="M180.42 72.4v-3.89q-4.41 0-6.87-3.21-2.5-3.17-2.5-10.44 0-7.69 2.58-10.65 2.56-2.93 6.7-2.93 4.27 0 6.64 2.79 2.06 2.61 2.29 8.93h-18.85v3.65h24.65q.12-.87.12-1.88 0-8.61-3.42-12.99-3.45-4.38-11.43-4.38-7.74 0-11.34 4.38-3.62 4.35-3.62 13.08 0 8.23 3.54 12.9 3.51 4.64 11.51 4.64m0-3.89v3.89q4.35 0 7.19-1.13 2.84-1.13 4.64-3.63 1.77-2.46 2.26-6l-5.27-1.42q-.5 2.55-1.48 4.58-1.05 2.03-2.93 2.87-1.89.84-4.41.84" paint-order="stroke"></path><rect width="29.81" height="35" x="-14.9" y="-17.5" fill="none" rx="0" ry="0" transform="translate(180.78 55.4)"></rect><path fill="#1b263b" d="M215.19 72.34q6.79 0 10.32-2.32 3.54-2.32 3.54-7.07 0-5.17-3.55-7.12-3.55-1.96-8.8-3.03-4.44-1.02-7.32-2.12-2.89-1.1-2.89-4.12 0-2.41 1.9-3.83t5.81-1.42q4.06 0 6.43 1.97 2.36 1.98 2.85 5.78l5.2-1.77q-.85-5.28-4.49-7.56-3.63-2.27-9.93-2.27-6.32 0-9.94 2.33-3.63 2.33-3.63 6.8 0 4.9 3.29 7 3.29 2.11 8.54 3.24 4.61 1.01 7.66 2.13 3.04 1.12 3.04 4.39 0 2.29-1.98 3.7-1.99 1.41-5.96 1.41-4.21 0-6.69-1.89-2.48-1.88-2.97-6.23l-5.19 1.77q.9 5.77 4.73 8 3.82 2.23 10.03 2.23" paint-order="stroke"></path><rect width="28.62" height="34.88" x="-14.31" y="-17.44" fill="none" rx="0" ry="0" transform="translate(215.24 55.4)"></rect><path fill="#1b263b" d="m256.14 66.31 1.3 5.8H262V37.75h-5.86zm-15.84-8.99v-19.6h-5.85v19.83q0 7.02 2.45 10.95 2.45 3.93 8.48 3.93 6.26 0 9.96-3.76 3.7-3.75 3.7-7.96L256.17 59q0 4.06-2.54 6.69-2.54 2.62-6.19 2.62-3.63 0-5.38-2.49-1.76-2.5-1.76-8.5" paint-order="stroke"></path><rect width="27.55" height="34.71" x="-13.78" y="-17.36" fill="none" rx="0" ry="0" transform="translate(248.72 55.58)"></rect><path fill="#1b263b" d="M268.67 37.75v34.36h5.88V43.46l-1.27-5.71zm19.22 13.74v20.62h5.86V51.09q0-5.86-2.09-9.76-2.08-3.9-7.94-3.9-5.16 0-8.75 3.81-3.58 3.81-3.58 8.83l3.11 1.57q0-4.76 2.03-7.43t5.3-2.67q3.25 0 4.66 2.45 1.4 2.46 1.4 7.5m19.14 0v20.62h5.86V51.09q0-5.86-2.06-9.76-2.06-3.9-7.89-3.9-5.19 0-8.77 3.84-3.58 3.84-3.58 8.8l3.13 1.57q0-4.76 2.03-7.43t5.28-2.67q3.28 0 4.64 2.45 1.36 2.46 1.36 7.5" paint-order="stroke"></path><rect width="44.22" height="34.68" x="-22.11" y="-17.34" fill="none" rx="0" ry="0" transform="translate(291.28 55.27)"></rect><path fill="#1b263b" d="M333.31 72.4v-3.89q-4.41 0-6.88-3.21-2.49-3.17-2.49-10.44 0-7.69 2.58-10.65 2.55-2.93 6.7-2.93 4.26 0 6.64 2.79 2.06 2.61 2.29 8.93H323.3v3.65h24.65q.12-.87.12-1.88 0-8.61-3.42-12.99-3.45-4.38-11.43-4.38-7.74 0-11.34 4.38-3.62 4.35-3.62 13.08 0 8.23 3.53 12.9 3.51 4.64 11.52 4.64m0-3.89v3.89q4.35 0 7.19-1.13 2.84-1.13 4.64-3.63 1.77-2.46 2.26-6l-5.28-1.42q-.49 2.55-1.48 4.58-1.04 2.03-2.92 2.87-1.89.84-4.41.84" paint-order="stroke"></path><rect width="29.81" height="35" x="-14.9" y="-17.5" fill="none" rx="0" ry="0" transform="translate(333.67 55.4)"></rect><path fill="#1b263b" d="M367.93 32.96v39.15h21.09q5.59 0 7.29-3.16 1.7-3.16 1.7-8.06 0-4.32-1.87-7.05-1.87-2.73-4.98-2.9 2.96-.14 4.53-2.77 1.56-2.62 1.56-6.28 0-3.54-1.67-6.23-1.66-2.7-7.43-2.7zm19.58 35.03h-13.66V52.88h12.5q3.25 0 4.48 1.96 1.23 1.96 1.23 5.47 0 3.77-1 5.72-1 1.96-3.55 1.96M386 49.2h-12.15V37.05h12.82q2.69 0 3.65 1.49.96 1.5.96 4.16 0 2.88-1.16 4.69-1.16 1.81-4.12 1.81" paint-order="stroke"></path><rect width="30.08" height="39.15" x="-15.04" y="-19.57" fill="none" rx="0" ry="0" transform="translate(383.47 53.03)"></rect><path fill="#1b263b" d="m425.73 66.31 1.31 5.8h4.55V37.75h-5.86zm-15.83-8.99v-19.6h-5.86v19.83q0 7.02 2.45 10.95 2.45 3.93 8.48 3.93 6.27 0 9.96-3.76 3.7-3.75 3.7-7.96L425.76 59q0 4.06-2.54 6.69-2.54 2.62-6.19 2.62-3.62 0-5.38-2.49-1.75-2.5-1.75-8.5" paint-order="stroke"></path><rect width="27.55" height="34.71" x="-13.78" y="-17.36" fill="none" rx="0" ry="0" transform="translate(418.31 55.58)"></rect><path fill="#1b263b" d="M439.1 37.72v34.39h5.89V37.72zm5.89-9.4h-5.89v5.19h5.89z" paint-order="stroke"></path><rect width="5.89" height="43.79" x="-2.94" y="-21.89" fill="none" rx="0" ry="0" transform="translate(442.55 50.72)"></rect><path fill="#1b263b" d="M453.16 26.58v45.53h5.89V26.58z" paint-order="stroke"></path><rect width="5.89" height="45.53" x="-2.94" y="-22.77" fill="none" rx="0" ry="0" transform="translate(456.6 49.84)"></rect><path fill="#1b263b" d="m488.08 66.46.38 5.65h5.45V26.58h-5.83zm-10.87 5.88q5.62 0 9.51-2.83 3.88-2.82 3.88-5.87l-2.52-3.16q0 3.02-2.62 5.4-2.63 2.37-6.28 2.37-3.89 0-6.15-2.82-2.26-2.83-2.26-10.55 0-7.71 2.26-10.54 2.26-2.82 6.15-2.82 3.65 0 6.28 2.36 2.62 2.36 2.62 5.35l2.52-3.07q0-3.08-3.88-5.91-3.89-2.82-9.51-2.82-6.18 0-9.27 4.32t-3.09 13.11q0 8.78 3.09 13.13 3.09 4.35 9.27 4.35" paint-order="stroke"></path><rect width="29.06" height="45.76" x="-14.53" y="-22.88" fill="none" rx="0" ry="0" transform="translate(479.88 49.96)"></rect><path fill="#1b263b" d="M514.24 72.4v-3.89q-4.41 0-6.87-3.21-2.5-3.17-2.5-10.44 0-7.69 2.58-10.65 2.55-2.93 6.7-2.93 4.26 0 6.64 2.79 2.06 2.61 2.29 8.93h-18.85v3.65h24.65q.12-.87.12-1.88 0-8.61-3.42-12.99-3.45-4.38-11.43-4.38-7.74 0-11.34 4.38-3.62 4.35-3.62 13.08 0 8.23 3.54 12.9 3.5 4.64 11.51 4.64m0-3.89v3.89q4.35 0 7.19-1.13 2.84-1.13 4.64-3.63 1.77-2.46 2.26-6l-5.28-1.42q-.49 2.55-1.47 4.58-1.05 2.03-2.93 2.87-1.89.84-4.41.84" paint-order="stroke"></path><rect width="29.81" height="35" x="-14.9" y="-17.5" fill="none" rx="0" ry="0" transform="translate(514.6 55.4)"></rect><path fill="#1b263b" d="M555.42 53.75h5.86q0-8.49-2.28-12.39-2.28-3.9-8.13-3.9-5.69 0-9.05 3.1-3.37 3.1-3.37 7.51l2.27 1.65q0-3.16 2.14-5.67 2.15-2.51 5.89-2.51 3.28 0 4.97 2.57 1.7 2.57 1.7 9.64m-20.53-16v34.36h5.85V44.39l-1.24-6.64z" paint-order="stroke"></path><rect width="26.39" height="34.65" x="-13.2" y="-17.32" fill="none" rx="0" ry="0" transform="translate(548.59 55.28)"></rect><circle r="2.79" fill="#e0e1dd" transform="translate(36.93 29.73)scale(.7499)"></circle><path fill="#e0e1dd" d="M61.239 28.811H47.118a1.177 1.177 0 1 1 0-2.354h14.12a1.177 1.177 0 1 1 0 2.354m-.652 3.397H48.558a.394.394 0 1 1 0-.787h12.028a.394.394 0 0 1 0 .787m-3.397 2.347h-8.624a.39.39 0 0 1 0-.78h8.624a.394.394 0 1 1 0 .788m2.355 2.347H48.558a.39.39 0 0 1 0-.78h10.986a.39.39 0 0 1 0 .78m-7.064 2.355h-3.922a.394.394 0 1 1 0-.788h3.922a.394.394 0 1 1 0 .788m10.07 0h-8.503a.394.394 0 1 1 0-.788h8.496a.394.394 0 0 1 0 .788m-18.297 5.49h-9.674a.787.787 0 0 1 0-1.568h9.674a.787.787 0 0 1 0 1.575m-4.185 3.262H35.36a.394.394 0 1 1 0-.788h4.701a.394.394 0 0 1 0 .788m0 2.354H35.36a.394.394 0 1 1 0-.787h4.701a.394.394 0 0 1 0 .787m0 2.355H35.36a.394.394 0 1 1 0-.787h4.701a.394.394 0 0 1 0 .787m0 2.347H35.36a.39.39 0 0 1 0-.78h4.701a.39.39 0 0 1 0 .78m26.014-7.056H42.416a.394.394 0 1 1 0-.788h23.66a.394.394 0 1 1 0 .788m0 2.354h-23.66a.394.394 0 1 1 0-.787h23.66a.394.394 0 1 1 0 .787m0 2.355h-23.66a.394.394 0 1 1 0-.787h23.66a.394.394 0 1 1 0 .787m0 2.347h-23.66a.39.39 0 0 1 0-.78h23.66a.39.39 0 0 1 0 .78m-21.83 4.582h-9.674a.787.787 0 0 1 0-1.575h9.674a.787.787 0 0 1 0 1.575m21.83 3.262H53.004a.39.39 0 0 1 0-.78h13.07a.39.39 0 0 1 0 .78m0 2.355h-13.07a.394.394 0 1 1 0-.788h13.07a.394.394 0 1 1 0 .788m0 2.347h-13.07a.39.39 0 0 1 0-.78h13.07a.394.394 0 1 1 0 .788m0 2.354h-13.07a.394.394 0 1 1 0-.787h13.07a.394.394 0 1 1 0 .787m-21.83 3.787h-9.673a.787.787 0 0 1 0-1.575h9.674a.787.787 0 0 1 0 1.575m21.83 3.27H35.36a.394.394 0 1 1 0-.788h30.715a.394.394 0 1 1 0 .788m0 2.354H35.36a.394.394 0 1 1 0-.787h30.715a.394.394 0 1 1 0 .787M48.43 62.924H35.36a.39.39 0 0 1 0-.78h13.07a.39.39 0 0 1 0 .78m0 2.355H35.36a.394.394 0 1 1 0-.788h13.07a.394.394 0 1 1 0 .788m0 2.347H35.36a.39.39 0 0 1 0-.78h13.07a.394.394 0 1 1 0 .788m0 2.354H35.36a.394.394 0 1 1 0-.787h13.07a.394.394 0 1 1 0 .787M32.48 25.28v11.894h8.886V25.279zm8.099 11.114h-1.297v-1.83a2.355 2.355 0 0 0-4.71 0v1.83h-1.305V26.067h7.32z"></path><path fill="#e0e1dd" d="m82.708 26.899.21-1.882-10.963-1.245V22.01H56.567l-11.429-2.13-.157.825-4.665-.525-.21 1.83H29.083v60.652h21.86l25.196 4.709 11.136-59.617zM30.65 81.094V23.577h39.745v57.517zm44.237 4.447-5.4-1.005 5.475.623zm-.188-1.995-7.776-.884h5.04V71.93q.12-.09.134-.255a.375.375 0 0 0-.135-.337v-1.657a.391.391 0 1 0 .06-.78h-.06v-1.582l.233.022a.39.39 0 1 0 .09-.772l-.323-.038v-1.575l.495.053a.393.393 0 0 0 .09-.78l-.585-.067V57.06l1.38.15a.39.39 0 1 0 .09-.772l-1.47-.173V54.69l1.65.188a.393.393 0 0 0 .09-.78l-1.74-.195v-1.575l1.912.21a.393.393 0 0 0 .09-.78l-2.002-.225v-1.575l2.175.248a.393.393 0 0 0 .097-.78l-2.272-.255V40.96a.375.375 0 0 0 .098-.203.375.375 0 0 0-.098-.3v-9.936a1.177 1.177 0 0 0 0-2.257v-2.917l9.224 1.05zm7.837-55.087.075-.578zl2.924.547-7.604 40.667z"></path></svg></svg>